<?xml version="1.0" encoding="UTF-8" standalone="no"?><!DOCTYPE svg PUBLIC "-//W3C//DTD SVG 1.1//EN" "http://www.w3.org/Graphics/SVG/1.1/DTD/svg11.dtd"><svg width="100%" height="100%" viewBox="0 0 1575 1575" version="1.1" xmlns="http://www.w3.org/2000/svg" xmlns:xlink="http://www.w3.org/1999/xlink" xml:space="preserve" xmlns:serif="http://www.serif.com/" style="fill-rule:evenodd;clip-rule:evenodd;stroke-linecap:round;stroke-linejoin:bevel;stroke-miterlimit:10;"><g><g><path d="M1110.65,227.728l-646.506,-0l-323.253,559.674l323.253,559.674l646.506,-0l323.253,-559.674l-323.253,-559.674Z" style="fill:none;fill-rule:nonzero;stroke:#000;stroke-width:15.72px;"/></g><g><path d="M507.7,256.942c2.975,-2.975 294.309,-4.869 298.907,-4.869c4.599,0 295.932,1.894 297.555,4.869c1.623,2.976 292.145,504.762 292.145,509.36c0,4.599 -287.816,506.385 -290.792,509.36c-2.976,2.976 -294.309,4.599 -297.555,4.599c-3.246,-0 -295.932,-1.623 -297.555,-4.599c-1.623,-2.975 -294.85,-504.761 -294.85,-509.36c-0,-4.598 289.169,-506.384 292.145,-509.36Z" style="fill:none;fill-rule:nonzero;stroke:#000;stroke-width:13.53px;"/></g><g><path d="M550.981,286.427c6.221,-5.951 265.635,-9.738 274.832,-9.738c9.197,-0 268.882,3.787 274.833,9.738c5.951,5.951 261.037,449.579 261.037,459.858c-0,10.279 -255.086,452.825 -261.037,459.858c-5.951,7.033 -265.636,9.738 -274.833,9.738c-9.197,-0 -268.611,-3.787 -274.832,-9.738c-6.222,-5.951 -261.037,-449.579 -261.037,-459.858c-0,-10.279 254.003,-453.907 261.037,-459.858Z" style="fill:none;fill-rule:nonzero;stroke:#000;stroke-width:13.53px;"/></g><g><path d="M594.532,315.912c8.926,-9.197 236.962,-15.419 250.487,-15.419c13.525,0 241.561,5.41 250.487,14.608c8.927,9.197 230.2,395.207 230.2,409.003c-0,13.795 -221.273,399.264 -230.2,408.191c-8.926,8.927 -236.691,14.607 -250.487,14.607c-13.796,0 -241.561,-5.68 -250.487,-14.607c-8.927,-8.927 -229.929,-394.666 -229.929,-408.191c-0,-13.526 221.002,-399.265 229.929,-408.192Z" style="fill:none;fill-rule:nonzero;stroke:#000;stroke-width:13.53px;"/></g><g><path d="M638.1,345.127c11.902,-11.903 208.018,-19.206 226.142,-19.206c18.124,-0 214.51,7.303 226.412,19.206c11.902,11.902 198.821,339.483 198.821,357.877c-0,18.394 -186.919,345.705 -198.821,357.607c-11.902,11.902 -208.018,19.477 -226.412,19.477c-18.395,-0 -214.24,-7.575 -226.142,-19.477c-11.902,-11.902 -199.091,-339.483 -199.091,-357.607c-0,-18.124 186.107,-345.975 199.091,-357.877Z" style="fill:none;fill-rule:nonzero;stroke:#000;stroke-width:13.53px;"/></g><g><path d="M681.347,374.612c15.148,-15.149 179.344,-24.346 202.067,-24.346c22.722,0 187.189,9.197 202.067,24.346c14.877,15.148 167.983,284.3 167.983,307.293c0,22.993 -152.835,292.145 -168.524,307.022c-15.69,14.878 -179.074,24.346 -202.067,24.346c-22.993,-0 -186.919,-9.197 -202.067,-24.346c-15.148,-15.148 -167.713,-284.3 -167.713,-307.022c0,-22.723 153.376,-292.416 168.254,-307.293Z" style="fill:none;fill-rule:nonzero;stroke:#000;stroke-width:13.53px;"/></g><g><path d="M724.898,403.826c17.853,-17.853 150.401,-28.944 177.722,-28.944c27.321,0 160.138,11.091 177.992,28.944c17.853,17.853 136.875,229.388 136.875,256.709c-0,27.321 -119.022,238.855 -136.875,256.979c-17.854,18.124 -150.401,28.944 -177.992,28.944c-27.592,0 -159.869,-11.09 -177.722,-28.944c-17.853,-17.853 -136.875,-229.388 -136.875,-256.979c-0,-27.592 118.21,-238.585 136.875,-256.709Z" style="fill:none;fill-rule:nonzero;stroke:#000;stroke-width:13.53px;"/></g><g><path d="M768.196,433.311c21.099,-20.829 121.727,-33.813 153.646,-33.813c31.92,0 132.818,12.984 153.647,33.813c20.829,20.829 105.767,174.205 105.767,206.125c0,31.919 -84.668,185.295 -105.767,206.395c-21.099,21.099 -121.457,33.813 -152.835,33.813c-31.379,-0 -132.547,-12.985 -153.647,-33.813c-21.099,-20.829 -105.497,-174.205 -105.497,-206.395c0,-32.19 83.857,-185.296 104.686,-206.125Z" style="fill:none;fill-rule:nonzero;stroke:#000;stroke-width:13.53px;"/></g><g><path d="M811.73,462.796c23.804,-24.075 92.783,-38.953 129.301,-38.953c36.518,0 105.497,14.878 129.572,38.953c24.075,24.075 74.659,119.022 74.659,155.54c0,36.518 -50.855,131.736 -74.659,155.811c-23.804,24.075 -93.865,38.682 -129.572,38.682c-35.706,0 -105.497,-14.878 -129.301,-38.682c-23.804,-23.805 -74.659,-119.293 -74.659,-155.811c-0,-36.518 50.314,-131.736 74.659,-155.54Z" style="fill:none;fill-rule:nonzero;stroke:#000;stroke-width:13.53px;"/></g><g><path d="M1109.3,598.048c0.085,34.49 -11.801,67.931 -33.627,94.643c-21.826,26.696 -52.224,45.005 -86.037,51.819c-33.814,6.796 -68.928,1.657 -99.377,-14.54c-30.449,-16.196 -54.338,-42.452 -67.592,-74.287c-13.272,-31.835 -15.064,-67.288 -5.123,-100.307c9.958,-33.018 31.04,-61.573 59.697,-80.779c28.64,-19.206 63.044,-27.896 97.382,-24.582c34.32,3.33 66.442,18.462 90.855,42.807c13.914,13.762 24.954,30.144 32.478,48.218c7.523,18.056 11.378,37.431 11.344,57.008Z" style="fill:none;fill-rule:nonzero;stroke:#000;stroke-width:13.53px;"/></g></g></svg>